<?xml version="1.0" standalone="no"?><!DOCTYPE svg PUBLIC "-//W3C//DTD SVG 1.1//EN" "http://www.w3.org/Graphics/SVG/1.1/DTD/svg11.dtd"><svg t="1696322884717" class="icon" viewBox="0 0 1024 1024" version="1.1" xmlns="http://www.w3.org/2000/svg" p-id="1011" xmlns:xlink="http://www.w3.org/1999/xlink" width="200" height="200"><path d="M768 42.666667H256a213.333333 213.333333 0 0 0-213.333333 213.333333v512a213.333333 213.333333 0 0 0 213.333333 213.333333h512a213.333333 213.333333 0 0 0 213.333333-213.333333V256a213.333333 213.333333 0 0 0-213.333333-213.333333zM256 128h512a128 128 0 0 1 128 128v512a128 128 0 0 1-128 128H256a128 128 0 0 1-128-128V256a128 128 0 0 1 128-128z" fill="#333333" p-id="1012"></path><path d="M430.336 308.437333l-29.781333 62.293334-66.602667 10.026666a90.026667 90.026667 0 0 0-52.096 27.392 96.170667 96.170667 0 0 0 1.621333 132.906667l48.213334 48.512-11.392 68.522667c-3.370667 20.394667-0.170667 41.344 9.173333 59.648 23.381333 45.952 78.421333 63.573333 122.922667 39.424L512 724.821333l59.562667 32.341334c17.749333 9.642667 38.016 12.970667 57.770666 9.472 49.536-8.789333 82.816-57.386667 74.325334-108.544l-11.349334-68.522667 48.213334-48.512c14.293333-14.421333 23.637333-33.28 26.538666-53.76 7.210667-51.370667-27.264-99.072-77.013333-106.538667l-66.645333-10.026666-29.781334-62.293334a92.586667 92.586667 0 0 0-41.344-42.709333c-45.098667-22.954667-99.669333-3.84-121.941333 42.666667zM512 351.829333l29.098667 60.885334 3.584 6.826666c14.122667 24.277333 38.144 40.917333 65.536 45.013334l65.024 9.770666-47.018667 47.36-5.162667 5.674667a96.981333 96.981333 0 0 0-21.248 78.250667l11.093334 66.858666-58.197334-31.573333-7.424-3.541333a89.216 89.216 0 0 0-77.994666 3.584l-58.24 31.573333 11.136-66.901333 0.981333-7.68a96.554667 96.554667 0 0 0-27.392-76.202667l-47.061333-47.402667 65.066666-9.770666c29.866667-4.48 55.722667-23.893333 69.12-51.84L512 351.829333z" fill="#1AB370" p-id="1013"></path></svg>