<?xml version="1.0" standalone="no"?><!DOCTYPE svg PUBLIC "-//W3C//DTD SVG 1.1//EN" "http://www.w3.org/Graphics/SVG/1.1/DTD/svg11.dtd"><svg t="1696325636376" class="icon" viewBox="0 0 1024 1024" version="1.1" xmlns="http://www.w3.org/2000/svg" p-id="952" xmlns:xlink="http://www.w3.org/1999/xlink" width="200" height="200"><path d="M853.333333 384v256l53.845334 96.917333A64 64 0 0 1 851.2 832H172.8a64 64 0 0 1-55.957333-95.082667L170.666667 640V384C170.666667 195.477333 323.477333 42.666667 512 42.666667s341.333333 152.810667 341.333333 341.333333zM512.981333 106.666667h-1.962666C358.4 106.666667 234.666667 230.4 234.666667 383.018667v257.28a85.333333 85.333333 0 0 1-8.106667 36.330666l-35.84 76.16a10.666667 10.666667 0 0 0 9.664 15.210667h623.210667a10.666667 10.666667 0 0 0 9.664-15.210667l-35.818667-76.16a85.333333 85.333333 0 0 1-8.106667-36.309333v-257.28C789.333333 230.4 665.6 106.666667 512.981333 106.666667zM330.666667 896h362.666666a32 32 0 0 1 0 64h-362.666666a32 32 0 0 1 0-64z" fill="#333333" p-id="953"></path><path d="M512 181.333333a202.666667 202.666667 0 0 1 202.666667 202.666667 32 32 0 0 1-64 0 138.666667 138.666667 0 0 0-138.666667-138.666667 32 32 0 0 1 0-64z" fill="#1AB370" p-id="954"></path></svg>