<?xml version="1.0" standalone="no"?><!DOCTYPE svg PUBLIC "-//W3C//DTD SVG 1.1//EN" "http://www.w3.org/Graphics/SVG/1.1/DTD/svg11.dtd"><svg t="1696325654797" class="icon" viewBox="0 0 1024 1024" version="1.1" xmlns="http://www.w3.org/2000/svg" p-id="1421" xmlns:xlink="http://www.w3.org/1999/xlink" width="200" height="200"><path d="M704 85.333333a170.666667 170.666667 0 0 1 170.666667 170.666667v213.333333h85.333333v320a170.666667 170.666667 0 0 1-170.666667 170.666667H234.666667a170.666667 170.666667 0 0 1-170.666667-170.666667V298.666667h85.333333V256a170.666667 170.666667 0 0 1 170.666667-170.666667h384zM128 362.666667v426.666666a106.666667 106.666667 0 0 0 102.037333 106.56L234.666667 896h554.666666a106.666667 106.666667 0 0 0 106.56-102.037333L896 789.333333V533.333333h-181.333333a213.333333 213.333333 0 0 1-166.4-79.850666L544 448l-19.2-25.6a149.290667 149.290667 0 0 0-22.229333-23.744A213.248 213.248 0 0 0 384 362.666667H128zM704 149.333333H320a106.666667 106.666667 0 0 0-106.56 102.037334L213.333333 256v42.666667h192a213.333333 213.333333 0 0 1 135.744 48.746666 277.525333 277.525333 0 0 1 60.096 56.106667l4.693334 6.08a149.333333 149.333333 0 0 0 113.6 59.626667L725.333333 469.333333h85.333334V256a106.666667 106.666667 0 0 0-97.344-106.261333l-4.693334-0.298667L704 149.333333z" fill="#333333" p-id="1422"></path><path d="M234.666667 725.333333m32 0l192 0q32 0 32 32l0 0q0 32-32 32l-192 0q-32 0-32-32l0 0q0-32 32-32Z" fill="#1AB370" p-id="1423"></path></svg>