<?xml version="1.0" standalone="no"?><!DOCTYPE svg PUBLIC "-//W3C//DTD SVG 1.1//EN" "http://www.w3.org/Graphics/SVG/1.1/DTD/svg11.dtd"><svg t="1696336167002" class="icon" viewBox="0 0 1024 1024" version="1.1" xmlns="http://www.w3.org/2000/svg" p-id="6485" xmlns:xlink="http://www.w3.org/1999/xlink" width="200" height="200"><path d="M685.77 916.98H338.03c-37.11 0-71.69-19.97-90.25-52.11L73.9 563.71c-18.56-32.14-18.56-72.07 0-104.21l173.87-301.16c18.56-32.14 53.14-52.11 90.25-52.11h347.74c37.11 0 71.69 19.97 90.25 52.11L949.89 459.5c18.56 32.14 18.56 72.07 0 104.21L776.02 864.87c-18.56 32.14-53.14 52.11-90.25 52.11zM338.03 164.24c-16.46 0-31.79 8.85-40.02 23.11L124.13 488.5c-8.23 14.25-8.23 31.96 0 46.22L298 835.87c8.23 14.25 23.56 23.11 40.02 23.11h347.74c16.46 0 31.79-8.85 40.02-23.11l173.87-301.15c8.23-14.25 8.23-31.96 0-46.21L725.79 187.35c-8.23-14.25-23.57-23.11-40.02-23.11H338.03z" p-id="6486" fill="#ffffff"></path><path d="M511.9 661.94c-82.89 0-150.33-67.44-150.33-150.33s67.44-150.33 150.33-150.33 150.33 67.44 150.33 150.33-67.44 150.33-150.33 150.33z m0-242.66c-50.91 0-92.33 41.42-92.33 92.33s41.42 92.33 92.33 92.33 92.33-41.42 92.33-92.33-41.42-92.33-92.33-92.33z" p-id="6487" fill="#ffffff"></path></svg>