<?xml version="1.0" standalone="no"?><!DOCTYPE svg PUBLIC "-//W3C//DTD SVG 1.1//EN" "http://www.w3.org/Graphics/SVG/1.1/DTD/svg11.dtd"><svg t="1696325644507" class="icon" viewBox="0 0 1024 1024" version="1.1" xmlns="http://www.w3.org/2000/svg" p-id="1264" xmlns:xlink="http://www.w3.org/1999/xlink" width="200" height="200"><path d="M512 42.666667l373.034667 149.205333A85.333333 85.333333 0 0 1 938.666667 271.104V480a450.986667 450.986667 0 0 1-233.664 395.178667L512 981.333333l-193.002667-106.154666A450.986667 450.986667 0 0 1 85.333333 480v-208.896a85.333333 85.333333 0 0 1 53.632-79.232L512 42.666667z m0 68.928L162.752 251.306667a21.333333 21.333333 0 0 0-13.269333 17.216L149.333333 271.104V480a386.986667 386.986667 0 0 0 193.557334 335.189333l6.933333 3.904L512 908.288l162.176-89.173333a386.986667 386.986667 0 0 0 200.405333-331.136L874.666667 480v-208.896a21.333333 21.333333 0 0 0-11.072-18.688l-2.346667-1.109333L512 111.573333z" fill="#333333" p-id="1265"></path><path d="M308.010667 527.658667a30.933333 30.933333 0 0 1 0-44.288 32.256 32.256 0 0 1 45.056 0l97.706666 96a21.333333 21.333333 0 0 0 29.888 0L713.6 350.506667a32.256 32.256 0 0 1 45.056 0 30.933333 30.933333 0 0 1 0 44.288L510.592 638.592a64 64 0 0 1-89.728 0l-112.853333-110.933333z" fill="#1AB370" p-id="1266"></path></svg>