<?xml version="1.0" standalone="no"?><!DOCTYPE svg PUBLIC "-//W3C//DTD SVG 1.1//EN" "http://www.w3.org/Graphics/SVG/1.1/DTD/svg11.dtd"><svg t="1696325641001" class="icon" viewBox="0 0 1024 1024" version="1.1" xmlns="http://www.w3.org/2000/svg" p-id="1109" xmlns:xlink="http://www.w3.org/1999/xlink" width="200" height="200"><path d="M938.666667 341.333333v341.333334H554.666667a170.666667 170.666667 0 1 1 0-341.333334h384z m-64 64H554.666667a106.666667 106.666667 0 0 0-106.56 102.037334L448 512a106.666667 106.666667 0 0 0 106.666667 106.666667h320V405.333333z" fill="#1AB370" p-id="1110"></path><path d="M768 106.666667a170.666667 170.666667 0 0 1 170.666667 170.666666v469.333334a170.666667 170.666667 0 0 1-170.666667 170.666666H256a170.666667 170.666667 0 0 1-170.666667-170.666666V277.333333a170.666667 170.666667 0 0 1 170.666667-170.666666h512z m0 64H256a106.666667 106.666667 0 0 0-106.666667 106.666666v469.333334a106.666667 106.666667 0 0 0 106.666667 106.666666h512a106.666667 106.666667 0 0 0 106.666667-106.666666V277.333333a106.666667 106.666667 0 0 0-106.666667-106.666666zM554.666667 469.333333a42.666667 42.666667 0 1 1 0 85.333334 42.666667 42.666667 0 0 1 0-85.333334z" fill="#333333" p-id="1111"></path></svg>