<?xml version="1.0" standalone="no"?><!DOCTYPE svg PUBLIC "-//W3C//DTD SVG 1.1//EN" "http://www.w3.org/Graphics/SVG/1.1/DTD/svg11.dtd"><svg t="1696427642562" class="icon" viewBox="0 0 1024 1024" version="1.1" xmlns="http://www.w3.org/2000/svg" p-id="4080" xmlns:xlink="http://www.w3.org/1999/xlink" width="200" height="200"><path d="M959 224.13c-0.75-16.58-13.7-30.6-31.18-30.6H663.73V184c0-19.63-0.77-38.26-10.38-56-14-26-41.76-41.7-70.48-42-7.17-0.08-14.35 0-21.52 0H441.88c-22.13 0-43.51 8-59.31 24.16-11.25 11.49-19.63 27-22.11 43.15a163.59 163.59 0 0 0-1.53 25.46v14.86H130.09c-10.83 0-21.67-0.15-32.5 0h-1.38c-16.31 0-31.94 14.07-31.18 30.6s13.7 30.6 31.18 30.6h16.1v311.65c0 12.35-0.23 24.29 2.49 36.52 8.82 39.8 44.86 67.56 83.43 67.86 16.15 0.13 32.3 0 48.45 0h72.38l-20.2 48-59.26 140.66-13.6 32.4c-3.32 7.88-5.35 15-3 23.63 1.91 7.11 7.29 14.82 13.78 18.33 7 3.76 15.4 5.64 23.12 3.09 6.9-2.29 14.92-7 17.93-14.09l37.16-88.23L374.18 694q4.86-11.54 9.73-23.09h257.86L675 749.77l59.26 140.7 13.65 32.41c2.76 6.56 11.53 12.29 17.93 14.09 7.18 2 16.74 1.11 23.12-3.09s12-10.51 13.78-18.33c1.92-8.58 0.35-15.62-3-23.63q-18.59-44.1-37.16-88.22l-56-132.84H827.79c16.17-0.45 33.08-5.28 46.29-15.19a94.84 94.84 0 0 0 33.2-45.06c4.1-11.29 4.69-23.44 4.69-35.38v-293c0-9.13 0.09-18.28 0.13-27.43 4.77 0 9.54 0 14.31-0.05h1.38c16.31-0.02 31.94-14.1 31.21-30.62z m-532-72.65a46.68 46.68 0 0 1 4.4-2.61 56 56 0 0 1 5.49-1.54c5-0.29 10.06-0.11 15-0.11h115c6.18 0 12.52-0.3 18.74 0.1a53.39 53.39 0 0 1 5.53 1.55c1.44 0.76 2.85 1.58 4.21 2.48 0.75 0.68 1.53 1.35 2.24 2.07s1.28 1.39 1.9 2.09a50.22 50.22 0 0 1 2.56 4.51 57.19 57.19 0 0 1 1.54 5.78c0.54 7.87 0.16 15.91 0.08 23.76H418.91c-0.07-7.85-0.45-15.89 0.08-23.76a54.7 54.7 0 0 1 1.55-5.78 49.47 49.47 0 0 1 2.43-4.31c0.66-0.77 1.31-1.56 2-2.29s1.38-1.31 2.03-1.94z m-246.53 454a10.37 10.37 0 0 1 1.34 1.09c-0.05 0.05-0.62-0.44-1.3-1.1z m668.73-5.69a9.81 9.81 0 0 1 1-1.4c0.15 0.08-0.33 0.67-0.96 1.39z m5.67-18.32c0 1.38-0.06 2.75-0.15 4.12a66 66 0 0 1-2 7.7 60.87 60.87 0 0 1-3.25 5.93l-0.72 1.09c-1 1.09-2.12 2.25-2.22 2.36-0.95 1-2 1.88-3 2.84a27.92 27.92 0 0 1-13.39 5.72c-1.26 0.09-2.52 0.14-3.79 0.16h-554c-24.62 0-49.25 0.1-73.87 0-1.48 0-3-0.06-4.43-0.16a59.14 59.14 0 0 1-7.35-2.1 58.44 58.44 0 0 1-5.69-3.39c-0.35-0.24-0.7-0.5-1-0.75-1-1-2.17-2.2-2.27-2.32-1-1-1.8-2.1-2.72-3.12a60 60 0 0 1-3.48-6.28 65.66 65.66 0 0 1-2.07-8c-0.93-11.86-0.09-24.14-0.09-35.92V271.13c0-5 0.05-10 0.1-15.07h685.43v284.8c0 13.53 0.09 27.07 0 40.6z" fill="#0071C3" p-id="4081"></path><path d="M291 406h387.65c17.85 0 35.75 0.36 53.61 0h0.74c15.69 0 30.72-13.8 30-30s-13.18-30-30-30H345.35c-17.85 0-35.75-0.36-53.61 0H291c-15.69 0-30.72 13.8-30 30s13.18 30 30 30zM291 534.92h192c15.69 0 30.72-13.79 30-30s-13.18-30-30-30H291c-15.69 0-30.72 13.8-30 30s13.18 30 30 30z" fill="#FD9A16" p-id="4082"></path></svg>